<svg xmlns="http://www.w3.org/2000/svg" xmlns:xlink="http://www.w3.org/1999/xlink" width="512" zoomAndPan="magnify" viewBox="0 0 384 383.999986" height="512" preserveAspectRatio="xMidYMid meet" version="1.0"><defs><clipPath id="1f250121c5"><path d="M 99.757812 116.894531 L 285.757812 116.894531 L 285.757812 302.894531 L 99.757812 302.894531 Z M 99.757812 116.894531 " clip-rule="nonzero"/></clipPath><clipPath id="2a1332ebbf"><path d="M 171.671875 179.332031 L 224.921875 179.332031 L 224.921875 240.832031 L 171.671875 240.832031 Z M 171.671875 179.332031 " clip-rule="nonzero"/></clipPath></defs><path fill="#008cff" d="M 162.351562 96.359375 C 162.351562 96.359375 163.683594 97.023438 165.75 97.171875 C 169.144531 97.46875 174.308594 96.582031 177.925781 89.347656 C 183.757812 77.761719 195.050781 67.058594 208.484375 71.636719 C 221.914062 76.210938 215.789062 107.652344 228.925781 109.792969 C 242.066406 111.933594 249.371094 109.792969 255.792969 84.183594 C 262.214844 58.570312 289.964844 59.753906 304.949219 70.601562 C 319.929688 81.453125 312.917969 108.316406 299.78125 117.46875 C 286.644531 126.621094 280.148438 158.136719 303.988281 152.304688 C 330.265625 145.886719 340.523438 159.539062 328.640625 185.519531 C 309.449219 227.664062 343.253906 204.117188 344.507812 225.226562 C 345.394531 240.503906 320.226562 242.351562 314.914062 248.402344 C 305.980469 258.515625 314.765625 271.136719 317.789062 273.421875 C 322.664062 277.113281 334.25 286.265625 346.5 288.996094 C 358.679688 291.726562 362.074219 318.296875 348.9375 327.15625 C 335.800781 336.011719 317.199219 340.292969 308.046875 310.992188 C 298.894531 281.691406 272.03125 287.152344 263.171875 300.953125 C 254.316406 314.683594 237.5625 343.097656 221.988281 340.957031 C 206.417969 338.816406 198.519531 333.945312 186.855469 318.960938 C 175.195312 303.980469 148.773438 332.765625 133.125 328.113281 C 120.28125 324.277344 117.257812 319.554688 117.550781 299.996094 C 117.847656 280.433594 89.578125 302.796875 79.910156 288.332031 C 71.867188 276.375 88.25 263.753906 85.519531 257.554688 C 79.394531 243.902344 57.769531 253.9375 39.09375 259.546875 C 1.601562 270.839844 2.632812 218.4375 35.40625 222.867188 C 60.277344 226.1875 86.847656 229.140625 77.328125 208.105469 C 66.257812 183.746094 73.046875 174.226562 80.351562 164.484375 C 87.660156 154.742188 77.917969 141.605469 66.921875 128.464844 C 55.921875 115.328125 64.78125 102.191406 79.46875 105.292969 C 94.15625 108.390625 110.6875 129.277344 126.851562 114.589844 C 126.703125 114.515625 133.050781 84.035156 162.351562 96.359375 Z M 162.351562 96.359375 " fill-opacity="1" fill-rule="nonzero"/><path fill="#008cff" d="M 240.664062 52.519531 C 240.664062 53.226562 240.59375 53.925781 240.457031 54.621094 C 240.316406 55.316406 240.113281 55.988281 239.84375 56.644531 C 239.570312 57.296875 239.238281 57.917969 238.847656 58.503906 C 238.453125 59.09375 238.007812 59.636719 237.507812 60.136719 C 237.007812 60.640625 236.460938 61.085938 235.875 61.480469 C 235.285156 61.871094 234.664062 62.203125 234.011719 62.472656 C 233.355469 62.746094 232.683594 62.949219 231.988281 63.085938 C 231.296875 63.226562 230.59375 63.292969 229.886719 63.292969 C 229.179688 63.292969 228.476562 63.226562 227.785156 63.085938 C 227.089844 62.949219 226.417969 62.746094 225.761719 62.472656 C 225.109375 62.203125 224.488281 61.871094 223.898438 61.480469 C 223.3125 61.085938 222.765625 60.640625 222.265625 60.136719 C 221.765625 59.636719 221.320312 59.09375 220.925781 58.503906 C 220.535156 57.917969 220.203125 57.296875 219.929688 56.644531 C 219.660156 55.988281 219.457031 55.316406 219.316406 54.621094 C 219.179688 53.925781 219.109375 53.226562 219.109375 52.519531 C 219.109375 51.8125 219.179688 51.109375 219.316406 50.417969 C 219.457031 49.722656 219.660156 49.050781 219.929688 48.394531 C 220.203125 47.742188 220.535156 47.121094 220.925781 46.53125 C 221.320312 45.945312 221.765625 45.398438 222.265625 44.898438 C 222.765625 44.398438 223.3125 43.953125 223.898438 43.558594 C 224.488281 43.167969 225.109375 42.835938 225.761719 42.5625 C 226.417969 42.292969 227.089844 42.089844 227.785156 41.949219 C 228.476562 41.8125 229.179688 41.742188 229.886719 41.742188 C 230.59375 41.742188 231.296875 41.8125 231.988281 41.949219 C 232.683594 42.089844 233.355469 42.292969 234.011719 42.5625 C 234.664062 42.835938 235.285156 43.167969 235.875 43.558594 C 236.460938 43.953125 237.007812 44.398438 237.507812 44.898438 C 238.007812 45.398438 238.453125 45.945312 238.847656 46.53125 C 239.238281 47.121094 239.570312 47.742188 239.84375 48.394531 C 240.113281 49.050781 240.316406 49.722656 240.457031 50.417969 C 240.59375 51.109375 240.664062 51.8125 240.664062 52.519531 Z M 240.664062 52.519531 " fill-opacity="1" fill-rule="nonzero"/><path fill="#008cff" d="M 179.550781 334.167969 C 179.550781 334.613281 179.507812 335.054688 179.417969 335.492188 C 179.332031 335.929688 179.203125 336.351562 179.035156 336.765625 C 178.863281 337.175781 178.652344 337.570312 178.40625 337.9375 C 178.15625 338.308594 177.875 338.652344 177.5625 338.96875 C 177.246094 339.285156 176.902344 339.566406 176.53125 339.8125 C 176.160156 340.058594 175.769531 340.269531 175.359375 340.441406 C 174.945312 340.609375 174.523438 340.738281 174.085938 340.828125 C 173.648438 340.914062 173.207031 340.957031 172.761719 340.957031 C 172.3125 340.957031 171.871094 340.914062 171.433594 340.828125 C 170.996094 340.738281 170.574219 340.609375 170.160156 340.441406 C 169.75 340.269531 169.359375 340.058594 168.988281 339.8125 C 168.617188 339.566406 168.273438 339.285156 167.957031 338.96875 C 167.644531 338.652344 167.363281 338.308594 167.113281 337.9375 C 166.867188 337.570312 166.65625 337.175781 166.488281 336.765625 C 166.316406 336.351562 166.1875 335.929688 166.101562 335.492188 C 166.011719 335.054688 165.96875 334.613281 165.96875 334.167969 C 165.96875 333.722656 166.011719 333.28125 166.101562 332.84375 C 166.1875 332.40625 166.316406 331.980469 166.488281 331.566406 C 166.65625 331.15625 166.867188 330.765625 167.113281 330.394531 C 167.363281 330.023438 167.644531 329.679688 167.957031 329.367188 C 168.273438 329.050781 168.617188 328.769531 168.988281 328.519531 C 169.359375 328.273438 169.75 328.0625 170.160156 327.894531 C 170.574219 327.722656 170.996094 327.59375 171.433594 327.507812 C 171.871094 327.421875 172.3125 327.375 172.761719 327.375 C 173.207031 327.375 173.648438 327.421875 174.085938 327.507812 C 174.523438 327.59375 174.945312 327.722656 175.359375 327.894531 C 175.769531 328.0625 176.160156 328.273438 176.53125 328.519531 C 176.902344 328.769531 177.246094 329.050781 177.5625 329.367188 C 177.875 329.679688 178.15625 330.023438 178.40625 330.394531 C 178.652344 330.765625 178.863281 331.15625 179.035156 331.566406 C 179.203125 331.980469 179.332031 332.40625 179.417969 332.84375 C 179.507812 333.28125 179.550781 333.722656 179.550781 334.167969 Z M 179.550781 334.167969 " fill-opacity="1" fill-rule="nonzero"/><path fill="#008cff" d="M 298.914062 334.515625 C 299.089844 334.980469 299.238281 335.453125 299.351562 335.933594 C 299.464844 336.417969 299.542969 336.894531 299.589844 337.371094 C 299.632812 337.847656 299.640625 338.316406 299.613281 338.769531 C 299.585938 339.226562 299.523438 339.660156 299.425781 340.074219 C 299.328125 340.492188 299.199219 340.878906 299.035156 341.238281 C 298.871094 341.597656 298.679688 341.925781 298.453125 342.214844 C 298.230469 342.507812 297.980469 342.757812 297.703125 342.96875 C 297.429688 343.175781 297.132812 343.34375 296.816406 343.464844 C 296.5 343.585938 296.167969 343.660156 295.820312 343.691406 C 295.476562 343.71875 295.125 343.699219 294.761719 343.632812 C 294.402344 343.566406 294.039062 343.457031 293.675781 343.296875 C 293.3125 343.140625 292.957031 342.941406 292.605469 342.695312 C 292.257812 342.453125 291.917969 342.171875 291.59375 341.851562 C 291.269531 341.53125 290.964844 341.179688 290.675781 340.796875 C 290.390625 340.410156 290.128906 340.003906 289.890625 339.570312 C 289.652344 339.136719 289.445312 338.6875 289.265625 338.21875 C 289.085938 337.753906 288.941406 337.28125 288.828125 336.800781 C 288.714844 336.320312 288.636719 335.839844 288.589844 335.363281 C 288.546875 334.886719 288.539062 334.421875 288.566406 333.964844 C 288.59375 333.511719 288.65625 333.074219 288.75 332.660156 C 288.847656 332.246094 288.980469 331.855469 289.144531 331.496094 C 289.308594 331.136719 289.5 330.8125 289.726562 330.519531 C 289.949219 330.230469 290.199219 329.980469 290.476562 329.769531 C 290.75 329.558594 291.046875 329.394531 291.363281 329.269531 C 291.679688 329.148438 292.011719 329.074219 292.355469 329.046875 C 292.703125 329.019531 293.054688 329.035156 293.417969 329.101562 C 293.777344 329.167969 294.140625 329.28125 294.503906 329.4375 C 294.863281 329.597656 295.222656 329.796875 295.574219 330.039062 C 295.921875 330.285156 296.261719 330.566406 296.585938 330.886719 C 296.910156 331.203125 297.214844 331.558594 297.503906 331.941406 C 297.789062 332.324219 298.050781 332.734375 298.289062 333.167969 C 298.523438 333.601562 298.734375 334.050781 298.914062 334.515625 Z M 298.914062 334.515625 " fill-opacity="1" fill-rule="nonzero"/><path fill="#008cff" d="M 375.582031 185.472656 C 376.132812 186.074219 376.644531 186.707031 377.105469 187.375 C 377.570312 188.039062 377.976562 188.722656 378.332031 189.425781 C 378.683594 190.128906 378.976562 190.835938 379.207031 191.550781 C 379.4375 192.261719 379.601562 192.96875 379.703125 193.664062 C 379.800781 194.359375 379.832031 195.03125 379.796875 195.683594 C 379.761719 196.332031 379.65625 196.949219 379.484375 197.53125 C 379.316406 198.113281 379.082031 198.652344 378.785156 199.140625 C 378.484375 199.632812 378.128906 200.066406 377.714844 200.449219 C 377.300781 200.828125 376.839844 201.148438 376.324219 201.402344 C 375.808594 201.65625 375.253906 201.84375 374.660156 201.964844 C 374.066406 202.085938 373.441406 202.136719 372.792969 202.117188 C 372.140625 202.101562 371.472656 202.011719 370.785156 201.855469 C 370.101562 201.695312 369.414062 201.472656 368.722656 201.183594 C 368.03125 200.894531 367.351562 200.542969 366.683594 200.128906 C 366.011719 199.71875 365.363281 199.253906 364.738281 198.738281 C 364.117188 198.21875 363.527344 197.660156 362.972656 197.058594 C 362.417969 196.453125 361.910156 195.820312 361.445312 195.152344 C 360.984375 194.488281 360.574219 193.804688 360.222656 193.101562 C 359.867188 192.398438 359.578125 191.691406 359.347656 190.976562 C 359.113281 190.265625 358.949219 189.5625 358.851562 188.867188 C 358.75 188.171875 358.71875 187.496094 358.757812 186.847656 C 358.792969 186.195312 358.894531 185.578125 359.066406 184.996094 C 359.238281 184.414062 359.472656 183.875 359.769531 183.386719 C 360.066406 182.894531 360.421875 182.460938 360.835938 182.078125 C 361.25 181.699219 361.714844 181.382812 362.230469 181.125 C 362.742188 180.871094 363.296875 180.683594 363.890625 180.5625 C 364.484375 180.441406 365.109375 180.390625 365.761719 180.410156 C 366.414062 180.425781 367.082031 180.515625 367.765625 180.671875 C 368.449219 180.832031 369.136719 181.054688 369.828125 181.34375 C 370.519531 181.632812 371.199219 181.984375 371.871094 182.398438 C 372.542969 182.808594 373.1875 183.273438 373.8125 183.789062 C 374.4375 184.308594 375.027344 184.867188 375.582031 185.472656 Z M 375.582031 185.472656 " fill-opacity="1" fill-rule="nonzero"/><path fill="#008cff" d="M 91.425781 335.570312 C 87.882812 340.589844 81.828125 342.433594 77.992188 339.703125 C 74.152344 336.972656 73.859375 330.699219 77.476562 325.605469 C 81.019531 320.585938 91.351562 314.238281 95.1875 316.96875 C 99.027344 319.773438 95.042969 330.550781 91.425781 335.570312 Z M 91.425781 335.570312 " fill-opacity="1" fill-rule="nonzero"/><path fill="#008cff" d="M 21.75 162.714844 C 14.445312 159.023438 11.046875 150.902344 14.222656 144.554688 C 17.394531 138.210938 25.957031 136.070312 33.265625 139.757812 C 40.570312 143.449219 50.683594 156.4375 47.507812 162.785156 C 44.335938 169.132812 29.058594 166.402344 21.75 162.714844 Z M 21.75 162.714844 " fill-opacity="1" fill-rule="nonzero"/><path fill="#008cff" d="M 156.300781 34.363281 C 158.441406 39.898438 157.925781 51.78125 152.390625 53.921875 C 146.855469 56.0625 138.441406 47.648438 136.300781 42.113281 C 134.160156 36.578125 136.890625 30.375 142.425781 28.238281 C 147.960938 26.097656 154.160156 28.828125 156.300781 34.363281 Z M 156.300781 34.363281 " fill-opacity="1" fill-rule="nonzero"/><g clip-path="url(#1f250121c5)"><path fill="#000000" d="M 192.707031 302.859375 L 192.199219 302.859375 L 192.066406 302.855469 L 191.753906 302.855469 L 191.605469 302.851562 L 191.457031 302.851562 L 191.160156 302.84375 L 191.011719 302.84375 L 190.863281 302.839844 L 190.710938 302.835938 L 190.625 302.835938 C 190.535156 302.832031 190.445312 302.832031 190.355469 302.828125 L 190.324219 302.828125 C 190.222656 302.824219 190.132812 302.824219 190.027344 302.820312 C 161.429688 301.980469 136.058594 288.203125 119.570312 267.148438 C 119.554688 267.136719 119.542969 267.121094 119.542969 267.105469 C 109.988281 254.914062 103.425781 240.28125 100.925781 224.304688 L 100.925781 224.300781 C 100.898438 224.0625 100.851562 223.824219 100.824219 223.585938 L 100.808594 223.511719 L 100.792969 223.433594 C 100.761719 223.246094 100.75 223.054688 100.71875 222.867188 L 100.703125 222.78125 L 100.6875 222.660156 L 100.671875 222.566406 C 100.660156 222.421875 100.628906 222.285156 100.613281 222.140625 L 100.597656 222.050781 L 100.585938 221.929688 L 100.570312 221.804688 L 100.554688 221.699219 C 100.539062 221.605469 100.539062 221.511719 100.523438 221.414062 L 100.511719 221.316406 L 100.496094 221.195312 L 100.480469 221.070312 L 100.464844 220.964844 C 100.449219 220.871094 100.449219 220.777344 100.4375 220.6875 L 100.421875 220.582031 L 100.40625 220.457031 L 100.390625 220.335938 L 100.375 220.230469 C 100.375 220.140625 100.363281 220.046875 100.363281 219.953125 L 100.332031 219.804688 L 100.316406 219.65625 L 100.300781 219.472656 L 100.285156 219.359375 L 100.273438 219.21875 L 100.242188 218.921875 L 100.226562 218.734375 L 100.210938 218.625 L 100.210938 218.472656 L 100.199219 218.335938 L 100.183594 218.191406 L 100.167969 218.042969 L 100.152344 217.871094 L 100.136719 217.746094 L 100.125 217.601562 L 100.125 217.453125 L 100.109375 217.304688 L 100.09375 217.125 L 100.078125 217.007812 L 100.0625 216.863281 L 100.0625 216.714844 L 100.050781 216.566406 L 100.035156 216.382812 L 100.035156 216.265625 L 100.019531 216.125 L 100.003906 215.976562 L 100.003906 215.828125 L 99.988281 215.679688 L 99.972656 215.511719 L 99.972656 215.375 L 99.960938 215.238281 L 99.960938 215.085938 L 99.945312 214.941406 L 99.945312 214.761719 L 99.929688 214.640625 L 99.929688 214.492188 L 99.914062 214.347656 L 99.914062 214.199219 L 99.898438 214.011719 L 99.898438 213.894531 L 99.886719 213.75 L 99.886719 213.453125 L 99.871094 213.304688 L 99.871094 212.988281 L 99.855469 212.855469 L 99.855469 212.558594 L 99.839844 212.382812 L 99.839844 211.960938 L 99.824219 211.8125 L 99.824219 211.0625 L 99.8125 210.871094 L 99.8125 210 C 99.8125 209.957031 99.8125 209.90625 99.8125 209.859375 L 99.8125 208.808594 L 99.824219 208.660156 L 99.824219 207.910156 L 99.839844 207.761719 L 99.839844 207.3125 L 99.855469 207.164062 L 99.855469 206.832031 L 99.871094 206.710938 L 99.871094 206.417969 L 99.886719 206.269531 L 99.886719 205.964844 L 99.898438 205.820312 L 99.898438 205.671875 L 99.914062 205.523438 L 99.914062 205.375 L 99.929688 205.214844 L 99.929688 205.058594 L 99.945312 204.929688 L 99.945312 204.78125 L 99.960938 204.632812 L 99.960938 204.457031 L 99.972656 204.332031 L 99.988281 204.1875 L 99.988281 204.039062 L 100.003906 203.890625 L 100.003906 203.707031 L 100.019531 203.589844 L 100.035156 203.445312 L 100.035156 203.300781 L 100.050781 203.152344 L 100.0625 203.003906 L 100.0625 202.847656 L 100.078125 202.710938 L 100.125 202.265625 L 100.125 202.09375 L 100.136719 201.96875 L 100.167969 201.679688 L 100.183594 201.53125 L 100.199219 201.351562 L 100.210938 201.230469 L 100.226562 201.089844 L 100.226562 200.945312 L 100.242188 200.796875 L 100.273438 200.609375 L 100.273438 200.496094 L 100.285156 200.339844 L 100.300781 200.210938 L 100.316406 200.066406 L 100.332031 199.917969 L 100.363281 199.746094 L 100.375 199.625 L 100.40625 199.335938 L 100.421875 199.1875 L 100.4375 199.011719 L 100.449219 198.890625 L 100.464844 198.75 L 100.480469 198.605469 L 100.511719 198.460938 L 100.523438 198.273438 L 100.539062 198.164062 L 100.554688 198.019531 L 100.585938 197.878906 L 100.597656 197.730469 L 100.628906 197.539062 L 100.628906 197.433594 C 100.644531 197.34375 100.660156 197.25 100.671875 197.15625 L 100.6875 197.007812 L 100.71875 196.808594 L 100.734375 196.707031 C 100.75 196.613281 100.761719 196.519531 100.777344 196.429688 L 100.792969 196.265625 L 100.824219 196.078125 L 100.835938 195.957031 L 100.867188 195.847656 C 100.867188 195.753906 100.898438 195.660156 100.910156 195.566406 L 100.925781 195.46875 L 100.957031 195.226562 L 100.972656 195.128906 C 100.988281 195.03125 101 194.9375 101.015625 194.84375 L 101.03125 194.742188 L 101.0625 194.621094 L 101.074219 194.5 L 101.089844 194.410156 C 101.121094 194.269531 101.136719 194.125 101.164062 193.980469 L 101.179688 193.898438 L 101.195312 193.777344 L 101.210938 193.691406 C 101.238281 193.503906 101.285156 193.3125 101.3125 193.121094 C 104.066406 178.023438 110.464844 164.191406 119.554688 152.578125 C 119.570312 152.566406 119.585938 152.550781 119.601562 152.535156 C 136.625 130.820312 163.09375 116.859375 192.8125 116.859375 C 222.527344 116.859375 248.996094 130.820312 266.019531 152.535156 C 266.035156 152.550781 266.050781 152.566406 266.066406 152.578125 C 275.15625 164.191406 281.554688 178.023438 284.308594 193.121094 C 284.335938 193.3125 284.382812 193.5 284.414062 193.691406 L 284.425781 193.777344 L 284.441406 193.898438 L 284.457031 193.980469 C 284.488281 194.125 284.5 194.265625 284.53125 194.410156 L 284.546875 194.5 L 284.5625 194.621094 L 284.589844 194.742188 L 284.605469 194.84375 C 284.621094 194.9375 284.636719 195.03125 284.648438 195.128906 L 284.664062 195.226562 L 284.679688 195.347656 L 284.710938 195.46875 L 284.722656 195.566406 C 284.738281 195.660156 284.738281 195.753906 284.753906 195.847656 L 284.785156 196.011719 L 284.8125 196.199219 L 284.828125 196.320312 L 284.84375 196.429688 C 284.859375 196.523438 284.875 196.617188 284.886719 196.707031 L 284.902344 196.808594 L 284.933594 197.050781 L 284.949219 197.15625 C 284.960938 197.25 284.976562 197.34375 284.992188 197.433594 L 285.007812 197.585938 L 285.035156 197.785156 L 285.050781 197.90625 L 285.066406 198.023438 L 285.097656 198.3125 L 285.113281 198.460938 L 285.140625 198.640625 L 285.15625 198.753906 L 285.171875 198.914062 L 285.1875 199.042969 L 285.199219 199.1875 L 285.230469 199.378906 L 285.246094 199.488281 L 285.261719 199.628906 L 285.273438 199.773438 L 285.289062 199.917969 L 285.304688 200.066406 L 285.320312 200.238281 L 285.335938 200.359375 L 285.347656 200.503906 L 285.363281 200.652344 L 285.378906 200.796875 L 285.394531 200.980469 L 285.410156 201.097656 L 285.410156 201.238281 L 285.425781 201.382812 L 285.4375 201.53125 L 285.453125 201.679688 L 285.46875 201.835938 L 285.484375 201.972656 L 285.5 202.121094 L 285.5 202.265625 L 285.511719 202.414062 L 285.527344 202.589844 L 285.542969 202.710938 L 285.558594 202.855469 L 285.558594 203.003906 L 285.574219 203.152344 L 285.585938 203.332031 L 285.585938 203.453125 L 285.617188 203.742188 L 285.617188 203.890625 L 285.632812 204.039062 L 285.648438 204.195312 L 285.648438 204.335938 L 285.660156 204.484375 L 285.660156 204.632812 L 285.675781 204.78125 L 285.675781 204.957031 L 285.691406 205.078125 L 285.691406 205.226562 L 285.707031 205.375 L 285.707031 205.523438 L 285.722656 205.707031 L 285.722656 205.828125 L 285.734375 205.96875 L 285.734375 206.269531 L 285.75 206.417969 L 285.75 206.574219 L 285.765625 206.714844 L 285.765625 207.164062 L 285.78125 207.335938 L 285.78125 207.761719 L 285.796875 207.910156 L 285.796875 208.507812 L 285.8125 208.660156 L 285.8125 209.71875 C 285.8125 209.765625 285.8125 209.8125 285.8125 209.859375 L 285.8125 211.0625 L 285.796875 211.25 L 285.796875 211.8125 L 285.78125 211.960938 L 285.78125 212.410156 L 285.765625 212.558594 L 285.765625 213.007812 L 285.75 213.15625 L 285.75 213.304688 L 285.734375 213.453125 L 285.734375 213.757812 L 285.722656 213.898438 L 285.722656 214.050781 L 285.707031 214.199219 L 285.707031 214.347656 L 285.691406 214.503906 L 285.691406 214.644531 L 285.675781 214.792969 L 285.675781 214.941406 L 285.660156 215.085938 L 285.660156 215.261719 L 285.648438 215.386719 L 285.632812 215.53125 L 285.632812 215.679688 L 285.617188 215.828125 L 285.617188 216.007812 L 285.601562 216.128906 L 285.585938 216.273438 L 285.585938 216.421875 L 285.574219 216.566406 L 285.558594 216.753906 L 285.558594 216.871094 L 285.542969 217.011719 L 285.527344 217.160156 L 285.511719 217.304688 L 285.5 217.453125 L 285.5 217.609375 L 285.484375 217.753906 L 285.46875 217.894531 L 285.4375 218.191406 L 285.425781 218.363281 L 285.410156 218.484375 L 285.410156 218.628906 L 285.394531 218.777344 L 285.378906 218.921875 L 285.347656 219.105469 L 285.347656 219.21875 L 285.335938 219.382812 L 285.320312 219.511719 L 285.304688 219.65625 L 285.273438 219.84375 L 285.261719 219.953125 C 285.261719 220.046875 285.246094 220.136719 285.246094 220.230469 L 285.230469 220.335938 L 285.214844 220.457031 L 285.199219 220.582031 L 285.1875 220.6875 C 285.171875 220.777344 285.171875 220.871094 285.15625 220.964844 L 285.140625 221.070312 L 285.125 221.195312 L 285.113281 221.316406 L 285.097656 221.414062 C 285.082031 221.507812 285.082031 221.605469 285.066406 221.699219 L 285.035156 221.859375 L 285.023438 222.050781 L 285.007812 222.140625 C 284.992188 222.285156 284.960938 222.425781 284.949219 222.566406 L 284.933594 222.660156 L 284.917969 222.78125 L 284.902344 222.867188 C 284.886719 223.054688 284.859375 223.242188 284.828125 223.433594 L 284.8125 223.511719 L 284.800781 223.585938 C 284.769531 223.828125 284.722656 224.066406 284.695312 224.300781 L 284.695312 224.304688 C 282.195312 240.28125 275.632812 254.914062 266.09375 267.105469 C 266.078125 267.121094 266.066406 267.136719 266.050781 267.148438 C 249.546875 288.203125 224.179688 301.976562 195.59375 302.820312 C 195.488281 302.820312 195.398438 302.824219 195.296875 302.828125 L 195.265625 302.828125 C 195.175781 302.832031 195.085938 302.832031 195.011719 302.835938 L 194.878906 302.839844 L 194.761719 302.839844 L 194.609375 302.84375 L 194.460938 302.84375 L 194.3125 302.847656 L 194.148438 302.851562 L 194.015625 302.851562 L 193.851562 302.855469 L 193.554688 302.855469 L 193.40625 302.859375 Z M 190.742188 260.378906 C 177.441406 260.449219 164.867188 261.21875 153.632812 262.542969 C 156.609375 268.996094 160.121094 274.726562 164.0625 279.550781 C 171.621094 288.792969 180.773438 294.632812 190.742188 295.347656 Z M 198.183594 260.414062 L 198.183594 294.917969 C 206.871094 293.289062 214.847656 287.761719 221.558594 279.550781 C 225.503906 274.726562 229.015625 268.996094 231.988281 262.542969 C 221.691406 261.332031 210.265625 260.582031 198.183594 260.414062 Z M 239.652344 263.566406 C 236.214844 271.492188 232.050781 278.484375 227.316406 284.261719 C 225.472656 286.519531 223.539062 288.59375 221.527344 290.472656 C 235.128906 285.621094 247.152344 277.417969 256.601562 266.863281 C 251.558594 265.601562 245.871094 264.492188 239.652344 263.566406 Z M 145.96875 263.566406 C 139.75 264.492188 134.066406 265.601562 129.019531 266.863281 C 138.46875 277.421875 150.492188 285.621094 164.09375 290.472656 C 162.082031 288.59375 160.148438 286.519531 158.304688 284.261719 C 153.570312 278.484375 149.40625 271.492188 145.96875 263.566406 Z M 135.566406 213.582031 L 107.324219 213.582031 L 107.339844 213.71875 L 107.339844 213.863281 L 107.355469 214.007812 L 107.355469 214.136719 L 107.371094 214.265625 L 107.371094 214.40625 L 107.382812 214.554688 L 107.382812 214.683594 L 107.398438 214.8125 L 107.398438 214.941406 L 107.414062 215.097656 L 107.414062 215.226562 L 107.429688 215.355469 L 107.429688 215.488281 L 107.445312 215.636719 L 107.445312 215.773438 L 107.460938 215.898438 L 107.472656 216.03125 L 107.472656 216.179688 L 107.488281 216.3125 L 107.503906 216.441406 L 107.503906 216.574219 L 107.519531 216.71875 L 107.535156 216.855469 L 107.546875 216.984375 L 107.546875 217.117188 L 107.5625 217.253906 L 107.578125 217.394531 C 107.59375 217.574219 107.609375 217.75 107.621094 217.925781 L 107.621094 217.929688 C 108.785156 230.21875 112.535156 241.757812 118.335938 251.980469 L 118.410156 252.101562 L 118.46875 252.210938 L 118.515625 252.308594 L 118.574219 252.40625 L 118.632812 252.496094 C 120.226562 255.277344 121.980469 257.957031 123.871094 260.527344 C 129.464844 258.972656 135.96875 257.605469 143.1875 256.476562 C 138.675781 243.796875 135.941406 229.191406 135.566406 213.582031 Z M 278.222656 214.8125 L 278.238281 214.652344 L 278.25 214.523438 L 278.25 214.394531 L 278.265625 214.246094 L 278.265625 213.972656 L 278.28125 213.847656 L 278.28125 213.699219 L 278.296875 213.582031 L 250.054688 213.582031 C 249.683594 229.191406 246.945312 243.800781 242.4375 256.476562 C 249.652344 257.605469 256.15625 258.972656 261.75 260.527344 C 263.640625 257.957031 265.394531 255.277344 266.988281 252.496094 L 267.046875 252.40625 L 267.105469 252.308594 L 267.152344 252.210938 L 267.226562 252.089844 L 267.285156 251.980469 C 273.089844 241.753906 276.839844 230.21875 278 217.929688 L 278 217.925781 C 278.015625 217.75 278.027344 217.570312 278.042969 217.394531 L 278.058594 217.25 L 278.074219 217.117188 L 278.074219 216.980469 L 278.089844 216.835938 L 278.101562 216.707031 L 278.117188 216.574219 L 278.117188 216.433594 L 278.132812 216.292969 L 278.148438 216.160156 L 278.148438 216.03125 L 278.164062 215.886719 L 278.175781 215.746094 L 278.175781 215.617188 L 278.191406 215.488281 L 278.191406 215.339844 L 278.207031 215.199219 L 278.207031 215.070312 L 278.222656 214.941406 Z M 190.742188 252.9375 L 190.742188 213.582031 L 143.007812 213.582031 C 143.394531 228.886719 146.148438 243.171875 150.683594 255.417969 C 162.707031 253.90625 176.308594 253.015625 190.742188 252.9375 Z M 242.613281 213.582031 L 198.183594 213.582031 L 198.183594 252.96875 C 211.394531 253.15625 223.835938 254.023438 234.9375 255.417969 C 239.472656 243.171875 242.226562 228.882812 242.613281 213.582031 Z M 234.921875 164.261719 C 223.835938 165.65625 211.382812 166.523438 198.183594 166.707031 L 198.183594 206.140625 L 242.613281 206.140625 C 242.226562 190.820312 239.472656 176.515625 234.921875 164.261719 Z M 267.390625 167.925781 C 265.679688 164.882812 263.773438 161.953125 261.71875 159.160156 C 256.125 160.710938 249.636719 162.078125 242.421875 163.207031 C 246.929688 175.886719 249.683594 190.511719 250.054688 206.140625 L 278.296875 206.140625 L 278.28125 206.003906 L 278.28125 205.859375 L 278.265625 205.710938 L 278.265625 205.582031 L 278.25 205.453125 L 278.25 205.320312 L 278.238281 205.167969 L 278.238281 205.035156 L 278.222656 204.910156 L 278.222656 204.777344 L 278.207031 204.625 L 278.207031 204.488281 L 278.191406 204.363281 L 278.191406 204.234375 L 278.175781 204.082031 L 278.175781 203.945312 L 278.164062 203.820312 L 278.148438 203.6875 L 278.148438 203.542969 L 278.132812 203.40625 L 278.117188 203.277344 L 278.117188 203.144531 L 278.101562 203.003906 L 278.089844 202.867188 L 278.074219 202.734375 L 278.074219 202.601562 C 278.058594 202.558594 278.058594 202.511719 278.058594 202.46875 L 278.042969 202.324219 L 278.027344 202.195312 L 278.015625 202.0625 C 278.015625 202.015625 278.015625 201.972656 278.015625 201.929688 L 278 201.789062 L 277.96875 201.523438 C 277.96875 201.476562 277.953125 201.433594 277.953125 201.386719 L 277.9375 201.253906 C 276.765625 189.480469 273.191406 178.410156 267.730469 168.527344 L 267.65625 168.40625 L 267.597656 168.296875 L 267.539062 168.195312 L 267.492188 168.097656 L 267.433594 168.003906 Z M 150.699219 164.261719 C 146.148438 176.515625 143.394531 190.820312 143.007812 206.140625 L 190.742188 206.140625 L 190.742188 166.738281 C 176.308594 166.664062 162.707031 165.773438 150.699219 164.261719 Z M 143.199219 163.207031 C 135.984375 162.078125 129.496094 160.710938 123.902344 159.160156 C 121.847656 161.953125 119.945312 164.882812 118.230469 167.925781 L 118.171875 168.039062 L 118.097656 168.148438 L 118.082031 168.195312 L 118.023438 168.304688 L 117.949219 168.421875 L 117.890625 168.527344 C 112.429688 178.410156 108.859375 189.480469 107.683594 201.253906 L 107.667969 201.386719 C 107.667969 201.433594 107.652344 201.476562 107.652344 201.523438 L 107.621094 201.796875 L 107.609375 201.929688 C 107.609375 201.972656 107.609375 202.015625 107.609375 202.0625 L 107.59375 202.203125 L 107.578125 202.339844 L 107.5625 202.46875 C 107.5625 202.511719 107.5625 202.558594 107.546875 202.601562 L 107.546875 202.746094 L 107.535156 202.882812 L 107.519531 203.011719 L 107.503906 203.144531 L 107.503906 203.289062 L 107.488281 203.425781 L 107.472656 203.558594 L 107.472656 203.6875 L 107.460938 203.835938 L 107.445312 203.972656 L 107.445312 204.101562 L 107.429688 204.234375 L 107.429688 204.382812 L 107.414062 204.519531 L 107.414062 204.648438 L 107.398438 204.777344 L 107.382812 204.929688 L 107.382812 205.070312 L 107.371094 205.195312 L 107.371094 205.324219 L 107.355469 205.476562 L 107.355469 205.746094 L 107.339844 205.871094 L 107.339844 206.027344 L 107.324219 206.140625 L 135.566406 206.140625 C 135.941406 190.515625 138.691406 175.890625 143.199219 163.207031 Z M 190.742188 124.375 C 180.773438 125.085938 171.621094 130.929688 164.0625 140.171875 C 160.121094 144.980469 156.621094 150.699219 153.660156 157.136719 C 164.867188 158.457031 177.441406 159.226562 190.742188 159.300781 Z M 198.183594 124.800781 L 198.183594 159.265625 C 210.265625 159.097656 221.679688 158.347656 231.960938 157.136719 C 229 150.699219 225.503906 144.980469 221.558594 140.171875 C 214.847656 131.960938 206.871094 126.433594 198.183594 124.800781 Z M 164.09375 129.246094 C 150.507812 134.09375 138.5 142.285156 129.050781 152.824219 C 134.09375 154.082031 139.777344 155.191406 145.984375 156.117188 C 149.421875 148.203125 153.585938 141.226562 158.304688 135.460938 C 160.148438 133.203125 162.082031 131.125 164.09375 129.246094 Z M 221.527344 129.246094 C 223.539062 131.125 225.472656 133.203125 227.316406 135.460938 C 232.035156 141.226562 236.199219 148.203125 239.636719 156.117188 C 245.84375 155.191406 251.527344 154.082031 256.570312 152.824219 C 247.136719 142.285156 235.113281 134.09375 221.527344 129.246094 Z M 221.527344 129.246094 " fill-opacity="1" fill-rule="evenodd"/></g><g clip-path="url(#2a1332ebbf)"><path fill="#ffffff" d="M 223.394531 206.726562 L 177.363281 180.15625 C 176.195312 179.480469 174.757812 179.480469 173.589844 180.15625 C 172.421875 180.828125 171.703125 182.074219 171.703125 183.421875 L 171.703125 236.574219 C 171.703125 237.921875 172.421875 239.167969 173.589844 239.84375 C 174.175781 240.183594 174.824219 240.347656 175.476562 240.347656 C 176.128906 240.347656 176.78125 240.179688 177.363281 239.84375 L 223.394531 213.269531 C 224.5625 212.59375 225.277344 211.347656 225.277344 210 C 225.277344 208.652344 224.5625 207.402344 223.394531 206.726562 Z M 223.394531 206.726562 " fill-opacity="1" fill-rule="nonzero"/></g></svg>