<svg xmlns="http://www.w3.org/2000/svg" xmlns:xlink="http://www.w3.org/1999/xlink" width="512" zoomAndPan="magnify" viewBox="0 0 384 383.999986" height="512" preserveAspectRatio="xMidYMid meet" version="1.0"><defs><clipPath id="7f4ab22191"><path d="M 120.765625 139.316406 L 263.265625 139.316406 L 263.265625 281.816406 L 120.765625 281.816406 Z M 120.765625 139.316406 " clip-rule="nonzero"/></clipPath><clipPath id="2ad1102d28"><path d="M 175.824219 187.117188 L 217 187.117188 L 217 233.617188 L 175.824219 233.617188 Z M 175.824219 187.117188 " clip-rule="nonzero"/></clipPath></defs><path fill="#008cff" d="M 168.6875 123.59375 C 168.6875 123.59375 169.703125 124.101562 171.285156 124.214844 C 173.882812 124.441406 177.839844 123.761719 180.609375 118.226562 C 185.074219 109.355469 193.71875 101.160156 204.003906 104.664062 C 214.285156 108.167969 209.597656 132.238281 219.65625 133.878906 C 229.710938 135.515625 235.308594 133.878906 240.222656 114.269531 C 245.140625 94.664062 266.386719 95.566406 277.855469 103.875 C 289.328125 112.179688 283.957031 132.746094 273.902344 139.753906 C 263.84375 146.761719 258.871094 170.890625 277.121094 166.425781 C 297.238281 161.507812 305.09375 171.964844 295.996094 191.851562 C 281.304688 224.117188 307.183594 206.09375 308.144531 222.253906 C 308.820312 233.949219 289.550781 235.363281 285.484375 239.996094 C 278.648438 247.738281 285.371094 257.398438 287.6875 259.152344 C 291.417969 261.976562 300.289062 268.984375 309.667969 271.074219 C 318.992188 273.164062 321.589844 293.507812 311.535156 300.289062 C 301.476562 307.070312 287.234375 310.347656 280.230469 287.914062 C 273.222656 265.480469 252.652344 269.664062 245.875 280.230469 C 239.09375 290.738281 226.265625 312.492188 214.34375 310.855469 C 202.421875 309.214844 196.375 305.488281 187.445312 294.015625 C 178.519531 282.546875 158.289062 304.582031 146.308594 301.023438 C 136.476562 298.085938 134.160156 294.46875 134.386719 279.496094 C 134.613281 264.519531 112.972656 281.640625 105.570312 270.566406 C 99.410156 261.414062 111.953125 251.75 109.863281 247.003906 C 105.171875 236.550781 88.617188 244.234375 74.320312 248.527344 C 45.617188 257.175781 46.40625 217.054688 71.496094 220.445312 C 90.539062 222.988281 110.878906 225.25 103.589844 209.144531 C 95.117188 190.496094 100.3125 183.207031 105.90625 175.75 C 111.503906 168.289062 104.042969 158.230469 95.625 148.175781 C 87.203125 138.117188 93.984375 128.058594 105.230469 130.429688 C 116.472656 132.804688 129.132812 148.796875 141.507812 137.550781 C 141.394531 137.496094 146.253906 114.15625 168.6875 123.59375 Z M 168.6875 123.59375 " fill-opacity="1" fill-rule="nonzero"/><path fill="#008cff" d="M 228.640625 90.03125 C 228.640625 90.570312 228.585938 91.109375 228.480469 91.640625 C 228.375 92.171875 228.21875 92.6875 228.011719 93.1875 C 227.804688 93.6875 227.550781 94.164062 227.25 94.613281 C 226.949219 95.0625 226.605469 95.480469 226.222656 95.863281 C 225.839844 96.246094 225.421875 96.589844 224.972656 96.890625 C 224.523438 97.191406 224.046875 97.445312 223.546875 97.652344 C 223.046875 97.859375 222.53125 98.015625 222 98.121094 C 221.46875 98.226562 220.929688 98.28125 220.390625 98.28125 C 219.847656 98.28125 219.3125 98.226562 218.78125 98.121094 C 218.25 98.015625 217.734375 97.859375 217.230469 97.652344 C 216.730469 97.445312 216.257812 97.191406 215.804688 96.890625 C 215.355469 96.589844 214.9375 96.246094 214.554688 95.863281 C 214.171875 95.480469 213.832031 95.0625 213.53125 94.613281 C 213.230469 94.164062 212.972656 93.6875 212.765625 93.1875 C 212.558594 92.6875 212.402344 92.171875 212.296875 91.640625 C 212.191406 91.109375 212.140625 90.570312 212.140625 90.03125 C 212.140625 89.488281 212.191406 88.953125 212.296875 88.421875 C 212.402344 87.890625 212.558594 87.371094 212.765625 86.871094 C 212.972656 86.371094 213.230469 85.894531 213.53125 85.445312 C 213.832031 84.996094 214.171875 84.578125 214.554688 84.195312 C 214.9375 83.8125 215.355469 83.472656 215.804688 83.167969 C 216.257812 82.867188 216.730469 82.613281 217.230469 82.40625 C 217.734375 82.199219 218.25 82.042969 218.78125 81.9375 C 219.3125 81.832031 219.847656 81.78125 220.390625 81.78125 C 220.929688 81.78125 221.46875 81.832031 222 81.9375 C 222.53125 82.042969 223.046875 82.199219 223.546875 82.40625 C 224.046875 82.613281 224.523438 82.867188 224.972656 83.167969 C 225.421875 83.472656 225.839844 83.8125 226.222656 84.195312 C 226.605469 84.578125 226.949219 84.996094 227.25 85.445312 C 227.550781 85.894531 227.804688 86.371094 228.011719 86.871094 C 228.21875 87.371094 228.375 87.890625 228.480469 88.421875 C 228.585938 88.953125 228.640625 89.488281 228.640625 90.03125 Z M 228.640625 90.03125 " fill-opacity="1" fill-rule="nonzero"/><path fill="#008cff" d="M 181.851562 305.65625 C 181.851562 305.996094 181.820312 306.335938 181.753906 306.671875 C 181.6875 307.003906 181.585938 307.332031 181.457031 307.644531 C 181.324219 307.960938 181.164062 308.261719 180.976562 308.542969 C 180.785156 308.828125 180.570312 309.089844 180.328125 309.332031 C 180.089844 309.574219 179.824219 309.789062 179.542969 309.980469 C 179.257812 310.167969 178.957031 310.328125 178.644531 310.460938 C 178.328125 310.589844 178.003906 310.6875 177.667969 310.753906 C 177.332031 310.820312 176.996094 310.855469 176.652344 310.855469 C 176.3125 310.855469 175.972656 310.820312 175.640625 310.753906 C 175.304688 310.6875 174.980469 310.589844 174.664062 310.460938 C 174.347656 310.328125 174.050781 310.167969 173.765625 309.980469 C 173.480469 309.789062 173.21875 309.574219 172.976562 309.332031 C 172.734375 309.089844 172.519531 308.828125 172.332031 308.542969 C 172.140625 308.261719 171.980469 307.960938 171.851562 307.644531 C 171.71875 307.332031 171.621094 307.003906 171.554688 306.671875 C 171.488281 306.335938 171.453125 305.996094 171.453125 305.65625 C 171.453125 305.316406 171.488281 304.976562 171.554688 304.640625 C 171.621094 304.308594 171.71875 303.984375 171.851562 303.667969 C 171.980469 303.351562 172.140625 303.050781 172.332031 302.769531 C 172.519531 302.484375 172.734375 302.222656 172.976562 301.980469 C 173.21875 301.738281 173.480469 301.523438 173.765625 301.335938 C 174.050781 301.144531 174.347656 300.984375 174.664062 300.855469 C 174.980469 300.722656 175.304688 300.625 175.640625 300.558594 C 175.972656 300.492188 176.3125 300.457031 176.652344 300.457031 C 176.996094 300.457031 177.332031 300.492188 177.667969 300.558594 C 178.003906 300.625 178.328125 300.722656 178.644531 300.855469 C 178.957031 300.984375 179.257812 301.144531 179.542969 301.335938 C 179.824219 301.523438 180.089844 301.738281 180.328125 301.980469 C 180.570312 302.222656 180.785156 302.484375 180.976562 302.769531 C 181.164062 303.050781 181.324219 303.351562 181.457031 303.667969 C 181.585938 303.984375 181.6875 304.308594 181.753906 304.640625 C 181.820312 304.976562 181.851562 305.316406 181.851562 305.65625 Z M 181.851562 305.65625 " fill-opacity="1" fill-rule="nonzero"/><path fill="#008cff" d="M 273.234375 305.921875 C 273.371094 306.28125 273.484375 306.640625 273.570312 307.011719 C 273.65625 307.378906 273.71875 307.746094 273.753906 308.109375 C 273.785156 308.476562 273.792969 308.832031 273.773438 309.179688 C 273.75 309.527344 273.703125 309.863281 273.628906 310.179688 C 273.554688 310.5 273.453125 310.796875 273.328125 311.070312 C 273.203125 311.347656 273.054688 311.597656 272.882812 311.820312 C 272.710938 312.039062 272.519531 312.234375 272.308594 312.394531 C 272.097656 312.554688 271.871094 312.679688 271.628906 312.773438 C 271.386719 312.867188 271.132812 312.925781 270.867188 312.945312 C 270.605469 312.96875 270.332031 312.953125 270.058594 312.902344 C 269.78125 312.851562 269.503906 312.769531 269.226562 312.648438 C 268.949219 312.527344 268.675781 312.371094 268.40625 312.1875 C 268.140625 312 267.878906 311.785156 267.632812 311.539062 C 267.382812 311.292969 267.148438 311.023438 266.929688 310.730469 C 266.710938 310.4375 266.511719 310.125 266.328125 309.792969 C 266.144531 309.460938 265.988281 309.117188 265.851562 308.761719 C 265.714844 308.402344 265.601562 308.039062 265.515625 307.671875 C 265.425781 307.304688 265.367188 306.9375 265.332031 306.574219 C 265.296875 306.207031 265.292969 305.851562 265.3125 305.503906 C 265.332031 305.152344 265.382812 304.820312 265.457031 304.503906 C 265.53125 304.183594 265.628906 303.886719 265.753906 303.613281 C 265.882812 303.335938 266.03125 303.085938 266.203125 302.863281 C 266.371094 302.640625 266.5625 302.449219 266.773438 302.289062 C 266.984375 302.128906 267.214844 302 267.457031 301.910156 C 267.699219 301.816406 267.953125 301.757812 268.214844 301.734375 C 268.480469 301.714844 268.75 301.730469 269.027344 301.78125 C 269.304688 301.828125 269.582031 301.914062 269.859375 302.035156 C 270.136719 302.15625 270.410156 302.3125 270.675781 302.496094 C 270.945312 302.683594 271.203125 302.898438 271.453125 303.144531 C 271.703125 303.390625 271.9375 303.65625 272.15625 303.953125 C 272.375 304.246094 272.574219 304.558594 272.757812 304.890625 C 272.9375 305.222656 273.097656 305.566406 273.234375 305.921875 Z M 273.234375 305.921875 " fill-opacity="1" fill-rule="nonzero"/><path fill="#008cff" d="M 331.929688 191.816406 C 332.355469 192.277344 332.746094 192.765625 333.097656 193.273438 C 333.453125 193.78125 333.765625 194.308594 334.035156 194.84375 C 334.308594 195.382812 334.53125 195.925781 334.707031 196.46875 C 334.882812 197.015625 335.011719 197.554688 335.085938 198.085938 C 335.164062 198.621094 335.1875 199.136719 335.160156 199.632812 C 335.128906 200.132812 335.050781 200.605469 334.921875 201.050781 C 334.789062 201.496094 334.613281 201.90625 334.382812 202.28125 C 334.15625 202.660156 333.882812 202.992188 333.566406 203.28125 C 333.25 203.574219 332.894531 203.816406 332.5 204.011719 C 332.105469 204.207031 331.683594 204.351562 331.226562 204.445312 C 330.773438 204.539062 330.296875 204.578125 329.796875 204.5625 C 329.296875 204.546875 328.785156 204.480469 328.261719 204.359375 C 327.738281 204.238281 327.210938 204.066406 326.679688 203.84375 C 326.152344 203.625 325.632812 203.355469 325.117188 203.039062 C 324.605469 202.722656 324.109375 202.367188 323.632812 201.972656 C 323.152344 201.578125 322.703125 201.148438 322.277344 200.6875 C 321.855469 200.226562 321.464844 199.738281 321.109375 199.230469 C 320.757812 198.71875 320.445312 198.195312 320.171875 197.65625 C 319.902344 197.121094 319.679688 196.578125 319.5 196.03125 C 319.324219 195.488281 319.199219 194.949219 319.121094 194.414062 C 319.046875 193.882812 319.023438 193.367188 319.050781 192.867188 C 319.078125 192.371094 319.15625 191.898438 319.289062 191.453125 C 319.417969 191.007812 319.597656 190.597656 319.824219 190.21875 C 320.054688 189.84375 320.328125 189.511719 320.644531 189.21875 C 320.960938 188.929688 321.316406 188.683594 321.710938 188.488281 C 322.101562 188.292969 322.527344 188.148438 322.980469 188.058594 C 323.4375 187.964844 323.914062 187.925781 324.414062 187.941406 C 324.914062 187.957031 325.425781 188.023438 325.949219 188.144531 C 326.472656 188.265625 327 188.433594 327.527344 188.65625 C 328.058594 188.878906 328.578125 189.148438 329.089844 189.464844 C 329.605469 189.777344 330.101562 190.132812 330.578125 190.53125 C 331.054688 190.925781 331.507812 191.355469 331.929688 191.816406 Z M 331.929688 191.816406 " fill-opacity="1" fill-rule="nonzero"/><path fill="#008cff" d="M 114.382812 306.730469 C 111.671875 310.574219 107.039062 311.984375 104.101562 309.894531 C 101.160156 307.804688 100.933594 303 103.703125 299.101562 C 106.417969 295.257812 114.328125 290.398438 117.265625 292.492188 C 120.203125 294.636719 117.152344 302.886719 114.382812 306.730469 Z M 114.382812 306.730469 " fill-opacity="1" fill-rule="nonzero"/><path fill="#008cff" d="M 61.042969 174.394531 C 55.449219 171.566406 52.847656 165.351562 55.277344 160.492188 C 57.707031 155.632812 64.261719 153.996094 69.855469 156.820312 C 75.453125 159.644531 83.191406 169.589844 80.761719 174.449219 C 78.332031 179.308594 66.636719 177.21875 61.042969 174.394531 Z M 61.042969 174.394531 " fill-opacity="1" fill-rule="nonzero"/><path fill="#008cff" d="M 164.050781 76.128906 C 165.691406 80.367188 165.296875 89.464844 161.058594 91.101562 C 156.820312 92.742188 150.378906 86.300781 148.738281 82.0625 C 147.101562 77.824219 149.191406 73.078125 153.429688 71.4375 C 157.667969 69.800781 162.414062 71.890625 164.050781 76.128906 Z M 164.050781 76.128906 " fill-opacity="1" fill-rule="nonzero"/><g clip-path="url(#7f4ab22191)"><path fill="#000000" d="M 191.976562 281.789062 L 191.589844 281.789062 L 191.484375 281.785156 L 191.246094 281.785156 L 191.132812 281.78125 L 191.019531 281.78125 L 190.90625 281.777344 L 190.789062 281.777344 L 190.675781 281.773438 L 190.5625 281.773438 L 190.449219 281.769531 L 190.378906 281.769531 C 190.3125 281.769531 190.242188 281.765625 190.175781 281.765625 L 190.152344 281.761719 C 190.074219 281.761719 190.003906 281.761719 189.925781 281.757812 C 168.011719 281.113281 148.578125 270.558594 135.945312 254.429688 C 135.933594 254.417969 135.921875 254.40625 135.921875 254.394531 C 128.605469 245.054688 123.578125 233.84375 121.660156 221.605469 L 121.660156 221.601562 C 121.636719 221.417969 121.605469 221.238281 121.582031 221.054688 L 121.558594 220.9375 C 121.535156 220.792969 121.523438 220.648438 121.5 220.503906 L 121.488281 220.4375 L 121.480469 220.34375 L 121.46875 220.273438 C 121.457031 220.164062 121.433594 220.054688 121.421875 219.949219 L 121.410156 219.878906 L 121.386719 219.691406 L 121.375 219.605469 C 121.363281 219.535156 121.363281 219.464844 121.351562 219.390625 L 121.34375 219.316406 L 121.320312 219.128906 L 121.308594 219.046875 C 121.296875 218.976562 121.296875 218.902344 121.285156 218.832031 L 121.273438 218.753906 L 121.261719 218.65625 L 121.25 218.5625 L 121.238281 218.484375 C 121.238281 218.414062 121.226562 218.34375 121.226562 218.273438 L 121.207031 218.15625 L 121.195312 218.042969 L 121.183594 217.902344 L 121.171875 217.816406 L 121.160156 217.707031 L 121.136719 217.480469 L 121.125 217.335938 L 121.113281 217.25 L 121.113281 217.136719 L 121.101562 217.03125 L 121.089844 216.921875 L 121.078125 216.808594 L 121.070312 216.675781 L 121.058594 216.582031 L 121.046875 216.46875 L 121.046875 216.355469 L 121.035156 216.242188 L 121.023438 216.105469 L 121.011719 216.015625 L 121 215.90625 L 121 215.789062 L 120.988281 215.675781 L 120.976562 215.535156 L 120.976562 215.445312 L 120.953125 215.226562 L 120.953125 215.109375 L 120.941406 215 L 120.929688 214.867188 L 120.929688 214.761719 L 120.921875 214.65625 L 120.921875 214.542969 L 120.910156 214.429688 L 120.910156 214.292969 L 120.898438 214.199219 L 120.898438 214.089844 L 120.886719 213.976562 L 120.886719 213.863281 L 120.875 213.71875 L 120.875 213.628906 L 120.863281 213.519531 L 120.863281 213.289062 L 120.851562 213.175781 L 120.851562 212.933594 L 120.839844 212.835938 L 120.839844 212.605469 L 120.828125 212.46875 L 120.828125 212.148438 L 120.816406 212.03125 L 120.816406 211.457031 L 120.804688 211.3125 L 120.804688 210.644531 C 120.804688 210.613281 120.804688 210.574219 120.804688 210.539062 L 120.804688 209.734375 L 120.816406 209.617188 L 120.816406 209.042969 L 120.828125 208.929688 L 120.828125 208.585938 L 120.839844 208.472656 L 120.839844 208.21875 L 120.851562 208.125 L 120.851562 207.902344 L 120.863281 207.785156 L 120.863281 207.550781 L 120.875 207.441406 L 120.875 207.328125 L 120.886719 207.214844 L 120.886719 207.101562 L 120.898438 206.980469 L 120.898438 206.859375 L 120.910156 206.761719 L 120.910156 206.644531 L 120.921875 206.535156 L 120.921875 206.398438 L 120.929688 206.304688 L 120.941406 206.191406 L 120.941406 206.078125 L 120.953125 205.964844 L 120.953125 205.824219 L 120.964844 205.734375 L 120.976562 205.625 L 120.976562 205.511719 L 121 205.285156 L 121 205.164062 L 121.011719 205.058594 L 121.035156 204.832031 L 121.046875 204.722656 L 121.046875 204.585938 L 121.058594 204.492188 L 121.070312 204.382812 L 121.078125 204.269531 L 121.089844 204.15625 L 121.101562 204.019531 L 121.113281 203.925781 L 121.125 203.820312 L 121.125 203.707031 L 121.136719 203.59375 L 121.160156 203.449219 L 121.160156 203.363281 L 121.171875 203.242188 L 121.183594 203.144531 L 121.195312 203.035156 L 121.207031 202.921875 L 121.226562 202.789062 L 121.238281 202.699219 L 121.261719 202.472656 L 121.273438 202.363281 L 121.285156 202.226562 L 121.296875 202.136719 L 121.308594 202.027344 L 121.320312 201.914062 L 121.34375 201.804688 L 121.351562 201.660156 L 121.363281 201.578125 L 121.375 201.464844 L 121.398438 201.359375 L 121.410156 201.246094 L 121.433594 201.097656 L 121.433594 201.019531 C 121.445312 200.949219 121.457031 200.875 121.46875 200.804688 L 121.480469 200.691406 L 121.5 200.539062 L 121.511719 200.460938 C 121.523438 200.390625 121.535156 200.316406 121.546875 200.246094 L 121.558594 200.121094 L 121.582031 199.980469 L 121.59375 199.886719 L 121.617188 199.804688 C 121.617188 199.730469 121.636719 199.660156 121.648438 199.585938 L 121.660156 199.511719 L 121.671875 199.421875 L 121.683594 199.328125 L 121.695312 199.25 C 121.707031 199.179688 121.71875 199.105469 121.730469 199.03125 L 121.742188 198.957031 L 121.765625 198.863281 L 121.773438 198.769531 L 121.785156 198.699219 C 121.808594 198.59375 121.820312 198.484375 121.84375 198.375 L 121.855469 198.308594 L 121.867188 198.214844 L 121.878906 198.152344 C 121.902344 198.007812 121.933594 197.859375 121.957031 197.714844 C 124.066406 186.144531 128.96875 175.550781 135.933594 166.652344 C 135.945312 166.644531 135.957031 166.632812 135.96875 166.621094 C 149.011719 149.984375 169.289062 139.289062 192.054688 139.289062 C 214.820312 139.289062 235.101562 149.984375 248.144531 166.621094 C 248.15625 166.632812 248.167969 166.644531 248.179688 166.652344 C 255.144531 175.550781 260.046875 186.144531 262.15625 197.714844 C 262.175781 197.859375 262.210938 198.003906 262.234375 198.152344 L 262.246094 198.214844 L 262.257812 198.308594 L 262.269531 198.375 C 262.292969 198.484375 262.304688 198.589844 262.324219 198.699219 L 262.335938 198.769531 L 262.347656 198.863281 L 262.371094 198.957031 L 262.382812 199.03125 C 262.394531 199.105469 262.40625 199.179688 262.417969 199.25 L 262.429688 199.328125 L 262.441406 199.421875 L 262.460938 199.511719 L 262.472656 199.585938 C 262.484375 199.660156 262.484375 199.730469 262.496094 199.804688 L 262.519531 199.929688 L 262.542969 200.070312 L 262.554688 200.164062 L 262.566406 200.246094 C 262.578125 200.320312 262.589844 200.390625 262.597656 200.460938 L 262.609375 200.539062 L 262.632812 200.726562 L 262.644531 200.804688 C 262.65625 200.875 262.667969 200.949219 262.679688 201.019531 L 262.691406 201.132812 L 262.714844 201.285156 L 262.726562 201.378906 L 262.734375 201.46875 L 262.746094 201.582031 L 262.757812 201.691406 L 262.769531 201.804688 L 262.792969 201.941406 L 262.804688 202.03125 L 262.816406 202.152344 L 262.828125 202.25 L 262.839844 202.363281 L 262.863281 202.507812 L 262.871094 202.59375 L 262.882812 202.699219 L 262.894531 202.808594 L 262.917969 203.035156 L 262.929688 203.167969 L 262.941406 203.257812 L 262.964844 203.484375 L 262.976562 203.59375 L 262.988281 203.734375 L 263 203.824219 L 263 203.933594 L 263.011719 204.046875 L 263.019531 204.15625 L 263.03125 204.269531 L 263.042969 204.390625 L 263.054688 204.496094 L 263.066406 204.609375 L 263.066406 204.722656 L 263.078125 204.832031 L 263.089844 204.96875 L 263.101562 205.0625 L 263.113281 205.171875 L 263.113281 205.285156 L 263.125 205.398438 L 263.136719 205.539062 L 263.136719 205.628906 L 263.148438 205.738281 L 263.15625 205.851562 L 263.15625 205.964844 L 263.167969 206.078125 L 263.179688 206.199219 L 263.179688 206.304688 L 263.191406 206.417969 L 263.191406 206.535156 L 263.203125 206.644531 L 263.203125 206.78125 L 263.214844 206.875 L 263.214844 206.988281 L 263.226562 207.101562 L 263.226562 207.214844 L 263.238281 207.355469 L 263.238281 207.449219 L 263.25 207.558594 L 263.25 207.785156 L 263.261719 207.902344 L 263.261719 208.019531 L 263.273438 208.128906 L 263.273438 208.472656 L 263.285156 208.605469 L 263.285156 208.929688 L 263.292969 209.042969 L 263.292969 209.503906 L 263.304688 209.617188 L 263.304688 210.429688 C 263.304688 210.464844 263.304688 210.5 263.304688 210.539062 L 263.304688 211.457031 L 263.292969 211.601562 L 263.292969 212.03125 L 263.285156 212.148438 L 263.285156 212.492188 L 263.273438 212.605469 L 263.273438 212.949219 L 263.261719 213.0625 L 263.261719 213.175781 L 263.25 213.289062 L 263.25 213.523438 L 263.238281 213.632812 L 263.238281 213.746094 L 263.226562 213.863281 L 263.226562 213.976562 L 263.214844 214.09375 L 263.214844 214.203125 L 263.203125 214.316406 L 263.203125 214.429688 L 263.191406 214.542969 L 263.191406 214.675781 L 263.179688 214.773438 L 263.167969 214.882812 L 263.167969 215 L 263.15625 215.109375 L 263.15625 215.25 L 263.148438 215.339844 L 263.136719 215.453125 L 263.136719 215.566406 L 263.125 215.675781 L 263.113281 215.820312 L 263.113281 215.910156 L 263.101562 216.015625 L 263.066406 216.355469 L 263.066406 216.476562 L 263.042969 216.695312 L 263.019531 216.921875 L 263.011719 217.054688 L 263 217.144531 L 263 217.257812 L 262.988281 217.371094 L 262.976562 217.480469 L 262.953125 217.621094 L 262.953125 217.710938 L 262.941406 217.832031 L 262.929688 217.929688 L 262.917969 218.042969 L 262.894531 218.1875 L 262.882812 218.273438 C 262.882812 218.339844 262.871094 218.414062 262.871094 218.484375 L 262.863281 218.5625 L 262.851562 218.65625 L 262.839844 218.753906 L 262.828125 218.832031 C 262.816406 218.902344 262.816406 218.976562 262.804688 219.046875 L 262.792969 219.128906 L 262.769531 219.316406 L 262.757812 219.390625 C 262.746094 219.460938 262.746094 219.535156 262.734375 219.605469 L 262.714844 219.730469 L 262.703125 219.878906 L 262.691406 219.949219 C 262.679688 220.054688 262.65625 220.164062 262.644531 220.273438 L 262.632812 220.34375 L 262.621094 220.4375 L 262.609375 220.503906 C 262.597656 220.648438 262.578125 220.792969 262.554688 220.9375 L 262.53125 221.054688 C 262.507812 221.238281 262.472656 221.421875 262.453125 221.601562 L 262.453125 221.605469 C 260.535156 233.84375 255.507812 245.054688 248.203125 254.394531 C 248.191406 254.40625 248.179688 254.417969 248.167969 254.429688 C 235.523438 270.558594 216.085938 281.113281 194.1875 281.757812 C 194.109375 281.757812 194.039062 281.761719 193.960938 281.761719 L 193.9375 281.765625 C 193.867188 281.765625 193.800781 281.769531 193.742188 281.769531 L 193.640625 281.769531 L 193.550781 281.773438 L 193.433594 281.773438 L 193.320312 281.777344 L 193.207031 281.777344 L 193.082031 281.78125 L 192.980469 281.78125 L 192.855469 281.785156 L 192.625 281.785156 L 192.511719 281.789062 Z M 190.472656 249.242188 C 180.28125 249.296875 170.648438 249.886719 162.039062 250.898438 C 164.320312 255.84375 167.011719 260.234375 170.03125 263.929688 C 175.824219 271.011719 182.832031 275.488281 190.472656 276.03125 Z M 196.171875 249.269531 L 196.171875 275.703125 C 202.828125 274.453125 208.941406 270.21875 214.082031 263.929688 C 217.101562 260.234375 219.792969 255.84375 222.074219 250.898438 C 214.183594 249.972656 205.429688 249.398438 196.171875 249.269531 Z M 227.945312 251.683594 C 225.308594 257.757812 222.117188 263.113281 218.492188 267.539062 C 217.078125 269.269531 215.597656 270.859375 214.058594 272.300781 C 224.476562 268.582031 233.6875 262.296875 240.929688 254.210938 C 237.0625 253.242188 232.707031 252.394531 227.945312 251.683594 Z M 156.167969 251.683594 C 151.402344 252.394531 147.050781 253.242188 143.183594 254.210938 C 150.421875 262.296875 159.632812 268.582031 170.054688 272.300781 C 168.515625 270.859375 167.035156 269.269531 165.621094 267.539062 C 161.996094 263.113281 158.800781 257.757812 156.167969 251.683594 Z M 148.199219 213.386719 L 126.5625 213.386719 L 126.574219 213.492188 L 126.574219 213.605469 L 126.585938 213.714844 L 126.585938 213.816406 L 126.597656 213.914062 L 126.597656 214.019531 L 126.609375 214.132812 L 126.609375 214.234375 L 126.621094 214.332031 L 126.621094 214.433594 L 126.632812 214.550781 L 126.632812 214.648438 L 126.644531 214.75 L 126.644531 214.851562 L 126.65625 214.964844 L 126.65625 215.066406 L 126.664062 215.164062 L 126.675781 215.265625 L 126.675781 215.378906 L 126.6875 215.484375 L 126.699219 215.582031 L 126.699219 215.683594 L 126.710938 215.792969 L 126.734375 215.996094 L 126.734375 216.097656 L 126.757812 216.308594 C 126.769531 216.445312 126.78125 216.582031 126.792969 216.71875 L 126.792969 216.722656 C 127.679688 226.136719 130.554688 234.976562 135 242.808594 L 135.054688 242.902344 L 135.101562 242.984375 L 135.136719 243.058594 L 135.179688 243.132812 L 135.226562 243.203125 C 136.445312 245.332031 137.792969 247.386719 139.238281 249.355469 C 143.527344 248.164062 148.507812 247.117188 154.039062 246.25 C 150.582031 236.539062 148.484375 225.347656 148.199219 213.386719 Z M 257.492188 214.332031 L 257.503906 214.210938 L 257.515625 214.109375 L 257.515625 214.011719 L 257.527344 213.898438 L 257.527344 213.6875 L 257.539062 213.59375 L 257.539062 213.476562 L 257.550781 213.386719 L 235.910156 213.386719 C 235.628906 225.347656 233.53125 236.542969 230.074219 246.25 C 235.605469 247.117188 240.585938 248.164062 244.871094 249.355469 C 246.320312 247.386719 247.664062 245.332031 248.886719 243.203125 L 248.929688 243.132812 L 248.976562 243.058594 L 249.011719 242.984375 L 249.066406 242.890625 L 249.113281 242.808594 C 253.558594 234.972656 256.433594 226.136719 257.320312 216.722656 L 257.320312 216.71875 C 257.332031 216.582031 257.34375 216.445312 257.355469 216.308594 L 257.367188 216.199219 L 257.378906 216.097656 L 257.378906 215.992188 L 257.390625 215.882812 L 257.402344 215.785156 L 257.414062 215.683594 L 257.414062 215.574219 L 257.421875 215.464844 L 257.433594 215.367188 L 257.433594 215.265625 L 257.457031 215.046875 L 257.457031 214.949219 L 257.46875 214.851562 L 257.46875 214.738281 L 257.480469 214.628906 L 257.480469 214.53125 L 257.492188 214.433594 Z M 190.472656 243.542969 L 190.472656 213.386719 L 153.902344 213.386719 C 154.195312 225.113281 156.304688 236.0625 159.78125 245.441406 C 168.992188 244.285156 179.414062 243.601562 190.472656 243.542969 Z M 230.210938 213.386719 L 196.171875 213.386719 L 196.171875 243.566406 C 206.292969 243.707031 215.824219 244.371094 224.328125 245.441406 C 227.804688 236.058594 229.914062 225.113281 230.210938 213.386719 Z M 224.316406 175.605469 C 215.824219 176.671875 206.285156 177.335938 196.171875 177.476562 L 196.171875 207.6875 L 230.210938 207.6875 C 229.914062 195.949219 227.804688 184.992188 224.316406 175.605469 Z M 249.191406 178.410156 C 247.882812 176.078125 246.421875 173.835938 244.851562 171.695312 C 240.5625 172.882812 235.59375 173.929688 230.0625 174.792969 C 233.519531 184.511719 235.628906 195.714844 235.910156 207.6875 L 257.550781 207.6875 L 257.539062 207.582031 L 257.539062 207.472656 L 257.527344 207.359375 L 257.527344 207.257812 L 257.515625 207.164062 L 257.515625 207.0625 L 257.503906 206.941406 L 257.503906 206.84375 L 257.492188 206.746094 L 257.492188 206.644531 L 257.480469 206.527344 L 257.480469 206.425781 L 257.46875 206.328125 L 257.46875 206.226562 L 257.457031 206.113281 L 257.457031 206.007812 L 257.445312 205.910156 L 257.433594 205.808594 L 257.433594 205.699219 L 257.421875 205.59375 L 257.414062 205.496094 L 257.414062 205.394531 L 257.402344 205.285156 L 257.390625 205.179688 L 257.378906 205.078125 L 257.378906 204.980469 C 257.367188 204.945312 257.367188 204.910156 257.367188 204.875 L 257.355469 204.765625 L 257.34375 204.667969 L 257.332031 204.5625 C 257.332031 204.53125 257.332031 204.496094 257.332031 204.460938 L 257.320312 204.355469 L 257.308594 204.253906 L 257.296875 204.148438 C 257.296875 204.117188 257.285156 204.082031 257.285156 204.046875 L 257.277344 203.945312 C 256.375 194.925781 253.640625 186.441406 249.457031 178.871094 L 249.398438 178.777344 L 249.351562 178.695312 L 249.308594 178.617188 L 249.273438 178.542969 L 249.226562 178.46875 Z M 159.792969 175.605469 C 156.304688 184.992188 154.195312 195.949219 153.902344 207.6875 L 190.472656 207.6875 L 190.472656 177.503906 C 179.414062 177.441406 168.992188 176.761719 159.792969 175.605469 Z M 154.046875 174.792969 C 148.519531 173.929688 143.550781 172.882812 139.261719 171.695312 C 137.691406 173.835938 136.230469 176.078125 134.917969 178.410156 L 134.875 178.496094 L 134.816406 178.582031 L 134.804688 178.617188 L 134.761719 178.703125 L 134.703125 178.792969 L 134.65625 178.871094 C 130.472656 186.441406 127.738281 194.925781 126.835938 203.945312 L 126.824219 204.046875 C 126.824219 204.082031 126.8125 204.117188 126.8125 204.148438 L 126.800781 204.253906 L 126.792969 204.359375 L 126.78125 204.460938 C 126.78125 204.496094 126.78125 204.53125 126.78125 204.5625 L 126.769531 204.671875 L 126.757812 204.777344 L 126.746094 204.875 C 126.746094 204.910156 126.746094 204.945312 126.734375 204.980469 L 126.734375 205.089844 L 126.699219 205.394531 L 126.699219 205.503906 L 126.6875 205.609375 L 126.675781 205.710938 L 126.675781 205.808594 L 126.664062 205.921875 L 126.65625 206.027344 L 126.65625 206.128906 L 126.644531 206.226562 L 126.644531 206.34375 L 126.632812 206.449219 L 126.632812 206.546875 L 126.621094 206.644531 L 126.609375 206.761719 L 126.609375 206.867188 L 126.597656 206.964844 L 126.597656 207.0625 L 126.585938 207.179688 L 126.585938 207.386719 L 126.574219 207.484375 L 126.574219 207.601562 L 126.5625 207.6875 L 148.199219 207.6875 C 148.484375 195.71875 150.59375 184.515625 154.046875 174.792969 Z M 190.472656 145.042969 C 182.832031 145.589844 175.824219 150.066406 170.03125 157.148438 C 167.011719 160.832031 164.332031 165.210938 162.0625 170.144531 C 170.648438 171.160156 180.28125 171.746094 190.472656 171.800781 Z M 196.171875 145.371094 L 196.171875 171.777344 C 205.429688 171.644531 214.171875 171.074219 222.050781 170.144531 C 219.78125 165.210938 217.101562 160.832031 214.082031 157.148438 C 208.941406 150.855469 202.828125 146.621094 196.171875 145.371094 Z M 170.054688 148.777344 C 159.644531 152.492188 150.445312 158.765625 143.207031 166.839844 C 147.070312 167.804688 151.425781 168.652344 156.179688 169.363281 C 158.8125 163.300781 162.003906 157.957031 165.621094 153.539062 C 167.035156 151.808594 168.515625 150.21875 170.054688 148.777344 Z M 214.058594 148.777344 C 215.597656 150.21875 217.078125 151.808594 218.492188 153.539062 C 222.105469 157.957031 225.296875 163.300781 227.933594 169.363281 C 232.6875 168.652344 237.039062 167.804688 240.90625 166.839844 C 233.675781 158.765625 224.464844 152.492188 214.058594 148.777344 Z M 214.058594 148.777344 " fill-opacity="1" fill-rule="evenodd"/></g><g clip-path="url(#2ad1102d28)"><path fill="#ffffff" d="M 215.425781 208.09375 L 180.183594 187.746094 C 179.285156 187.230469 178.1875 187.230469 177.292969 187.746094 C 176.398438 188.261719 175.847656 189.21875 175.847656 190.25 L 175.847656 230.945312 C 175.847656 231.976562 176.398438 232.933594 177.292969 233.449219 C 177.738281 233.707031 178.238281 233.835938 178.738281 233.835938 C 179.234375 233.835938 179.734375 233.703125 180.183594 233.449219 L 215.425781 213.101562 C 216.320312 212.585938 216.867188 211.632812 216.867188 210.597656 C 216.867188 209.566406 216.316406 208.609375 215.425781 208.09375 Z M 215.425781 208.09375 " fill-opacity="1" fill-rule="nonzero"/></g></svg>